USFL
nRows=259
nColumns=2
inDegrees=yes
endheader
time	tib_ant_r	
3.22681	 85.948080	
3.26008	 85.934098	
3.29335	 85.948478	
3.32661	 85.965642	
3.35988	 85.988727	
3.39315	 85.986177	
3.42641	 85.987598	
3.45968	 85.971770	
3.49294	 85.991845	
3.52621	 85.990765	
3.55948	 85.984009	
3.59274	 86.003182	
3.62601	 85.990739	
3.65927	 86.004558	
3.69254	 86.001408	
3.72581	 86.017956	
3.75907	 86.026180	
3.79234	 86.014919	
3.8256	 85.975755	
3.85887	 85.986659	
3.89214	 85.984181	
3.9254	 85.974580	
3.95867	 86.007347	
3.99194	 86.028570	
4.0252	 86.021199	
4.05847	 86.006972	
4.09173	 85.963145	
4.125	 85.945448	
4.15827	 85.931698	
4.19153	 85.914238	
4.2248	 85.912533	
4.25806	 85.945522	
4.29133	 85.968471	
4.3246	 85.991584	
4.35786	 86.019516	
4.39113	 86.006058	
4.4244	 86.003938	
4.45766	 86.033240	
4.49093	 86.032714	
4.52419	 86.022955	
4.55746	 85.990683	
4.59073	 86.004331	
4.62399	 85.994292	
4.65726	 85.958473	
4.69052	 85.956742	
4.72379	 85.957143	
4.75706	 85.948365	
4.79032	 85.951973	
4.82359	 85.937862	
4.85685	 85.927244	
4.89012	 85.929110	
4.92339	 85.938116	
4.95665	 85.964342	
4.98992	 85.978856	
5.02319	 85.944040	
5.05645	 85.983885	
5.08972	 86.039819	
5.12298	 86.017352	
5.15625	 86.031347	
5.18952	 85.975234	
5.22278	 85.946554	
5.25605	 85.973805	
5.28931	 85.958842	
5.32258	 85.939495	
5.35585	 85.922698	
5.38911	 85.930064	
5.42238	 85.938201	
5.45565	 86.014061	
5.48891	 86.013458	
5.52218	 86.060069	
5.55544	 86.099635	
5.58871	 86.057154	
5.62198	 86.059924	
5.65524	 86.029023	
5.68851	 85.944789	
5.72177	 85.973927	
5.75504	 86.147626	
5.78831	 85.818960	
5.82157	 85.591936	
5.85484	 85.698105	
5.8881	 85.998364	
5.92137	 86.212988	
5.95464	 86.450792	
5.9879	 86.570602	
6.02117	 80.232177	
6.05444	 80.716820	
6.0877	 80.914608	
6.12097	 81.918056	
6.15423	 71.854592	
6.1875	 72.358695	
6.22077	 72.675110	
6.25403	 72.716284	
6.2873	 73.360430	
6.32056	 73.725457	
6.35383	 73.490482	
6.3871	 73.730056	
6.42036	 71.896940	
6.45363	 71.620805	
6.4869	 71.970047	
6.52016	 71.585902	
6.55343	 71.631215	
6.58669	 71.811281	
6.61996	 71.607147	
6.65323	 71.549041	
6.68649	 71.679983	
6.71976	 71.587495	
6.75302	 71.774946	
6.78629	 71.746651	
6.81956	 71.552295	
6.85282	 71.415830	
6.88609	 71.302863	
6.91935	 70.950934	
6.95262	 70.807070	
6.98589	 70.880077	
7.01915	 70.888386	
7.05242	 70.864152	
7.08569	 70.858194	
7.11895	 70.702796	
7.15222	 70.686020	
7.18548	 70.809411	
7.21875	 70.951382	
7.25202	 70.908078	
7.28528	 70.878841	
7.31855	 70.787780	
7.35181	 70.822746	
7.38508	 70.878270	
7.41835	 70.800959	
7.45161	 70.772073	
7.48488	 70.777485	
7.51815	 70.661336	
7.55141	 70.659565	
7.58468	 70.593489	
7.61794	 70.675159	
7.65121	 70.648773	
7.68448	 70.677483	
7.71774	 70.746549	
7.75101	 70.702473	
7.78427	 70.767683	
7.81754	 70.645802	
7.85081	 70.684623	
7.88407	 70.737402	
7.91734	 70.693971	
7.9506	 70.674384	
7.98387	 70.719910	
8.01714	 70.758434	
8.0504	 70.740130	
8.08367	 70.786114	
8.11694	 70.805881	
8.1502	 70.890427	
8.18347	 70.822205	
8.21673	 70.795392	
8.25	 70.835723	
8.28327	 70.831061	
8.31653	 70.885878	
8.3498	 70.873982	
8.38306	 70.820860	
8.41633	 70.778321	
8.4496	 70.866857	
8.48286	 70.894427	
8.51613	 70.693723	
8.5494	 70.883944	
8.58266	 70.873766	
8.61593	 71.080832	
8.64919	 71.051576	
8.68246	 71.002967	
8.71573	 71.013009	
8.74899	 70.986818	
8.78226	 70.973557	
8.81552	 70.987861	
8.84879	 70.987343	
8.88206	 70.937107	
8.91532	 70.921811	
8.94859	 70.945587	
8.98185	 71.083800	
9.01512	 71.053862	
9.04839	 71.061391	
9.08165	 71.019121	
9.11492	 71.047719	
9.14819	 71.027158	
9.18145	 71.067500	
9.21472	 71.077540	
9.24798	 71.039071	
9.28125	 71.116568	
9.31452	 71.104525	
9.34778	 71.272100	
9.38105	 71.336781	
9.41431	 71.468267	
9.44758	 71.361752	
9.48085	 71.268977	
9.51411	 71.171892	
9.54738	 71.286315	
9.58065	 71.303081	
9.61391	 71.315714	
9.64718	 71.358572	
9.68044	 71.365101	
9.71371	 71.370984	
9.74698	 71.409315	
9.78024	 71.357813	
9.81351	 71.375853	
9.84677	 71.359836	
9.88004	 71.327814	
9.91331	 71.368367	
9.94657	 71.465111	
9.97984	 71.479853	
10.0131	 71.373966	
10.0464	 71.388650	
10.0796	 71.364706	
10.1129	 71.306701	
10.1462	 71.251969	
10.1794	 71.278772	
10.2127	 71.290879	
10.246	 71.189747	
10.2792	 71.278092	
10.3125	 71.279431	
10.3458	 71.363035	
10.379	 71.324260	
10.4123	 71.432886	
10.4456	 71.358559	
10.4788	 71.217373	
10.5121	 71.169167	
10.5454	 71.244003	
10.5786	 71.254840	
10.6119	 71.164696	
10.6452	 71.230155	
10.6784	 71.269864	
10.7117	 71.360032	
10.745	 71.298183	
10.7782	 71.206525	
10.8115	 71.210218	
10.8448	 71.229569	
10.878	 71.204321	
10.9113	 71.263137	
10.9446	 71.311188	
10.9778	 71.269184	
11.0111	 71.389938	
11.0444	 71.426279	
11.0776	 71.467220	
11.1109	 71.550206	
11.1442	 71.527431	
11.1774	 71.686787	
11.2107	 71.784412	
11.244	 71.773439	
11.2772	 71.939387	
11.3105	 71.847907	
11.3437	 71.878065	
11.377	 71.984195	
11.4103	 71.935997	
11.4435	 71.872091	
11.4768	 71.995647	
11.5101	 71.644073	
11.5433	 71.678581	
11.5766	 71.385045	
11.6099	 71.188653	
11.6431	 71.182034	
11.6764	 71.085845	
11.7097	 70.954052	
11.7429	 71.120110	
11.7762	 70.933802	
11.8095	 70.681494	
